<svg width="127" height="22" viewBox="0 0 127 22" fill="none" xmlns="http://www.w3.org/2000/svg">
<path d="M10.5 0.5C4.70156 0.5 0 5.20156 0 11C0 16.7984 4.70156 21.5 10.5 21.5C16.2984 21.5 21 16.7984 21 11C21 5.20156 16.2984 0.5 10.5 0.5ZM13.8773 11.1617L8.75859 14.8859C8.73053 14.9061 8.69745 14.9181 8.66299 14.9207C8.62853 14.9233 8.59403 14.9164 8.56327 14.9006C8.53251 14.8849 8.50668 14.861 8.48863 14.8315C8.47057 14.802 8.46099 14.7681 8.46094 14.7336V7.28984C8.46082 7.25522 8.4703 7.22124 8.48832 7.19167C8.50633 7.1621 8.53219 7.1381 8.56301 7.12232C8.59383 7.10654 8.62842 7.09961 8.66295 7.10229C8.69747 7.10497 8.73057 7.11716 8.75859 7.1375L13.8773 10.8594C13.9015 10.8765 13.9213 10.8991 13.9349 10.9254C13.9485 10.9517 13.9556 10.9809 13.9556 11.0105C13.9556 11.0402 13.9485 11.0694 13.9349 11.0957C13.9213 11.122 13.9015 11.1446 13.8773 11.1617Z" fill="#008080"/>
<path d="M40.192 15.5L37.384 7.1H38.62L41.2 14.852H40.576L43.252 7.1H44.356L46.972 14.852H46.372L48.988 7.1H50.128L47.32 15.5H46.06L43.612 8.312H43.936L41.476 15.5H40.192ZM54.8955 15.5V14.156L54.8355 13.904V11.612C54.8355 11.124 54.6915 10.748 54.4035 10.484C54.1235 10.212 53.6995 10.076 53.1315 10.076C52.7555 10.076 52.3875 10.14 52.0275 10.268C51.6675 10.388 51.3635 10.552 51.1155 10.76L50.6355 9.896C50.9635 9.632 51.3555 9.432 51.8115 9.296C52.2755 9.152 52.7595 9.08 53.2635 9.08C54.1355 9.08 54.8075 9.292 55.2795 9.716C55.7515 10.14 55.9875 10.788 55.9875 11.66V15.5H54.8955ZM52.8075 15.572C52.3355 15.572 51.9195 15.492 51.5595 15.332C51.2075 15.172 50.9355 14.952 50.7435 14.672C50.5515 14.384 50.4555 14.06 50.4555 13.7C50.4555 13.356 50.5355 13.044 50.6955 12.764C50.8635 12.484 51.1315 12.26 51.4995 12.092C51.8755 11.924 52.3795 11.84 53.0115 11.84H55.0275V12.668H53.0595C52.4835 12.668 52.0955 12.764 51.8955 12.956C51.6955 13.148 51.5955 13.38 51.5955 13.652C51.5955 13.964 51.7195 14.216 51.9675 14.408C52.2155 14.592 52.5595 14.684 52.9995 14.684C53.4315 14.684 53.8075 14.588 54.1275 14.396C54.4555 14.204 54.6915 13.924 54.8355 13.556L55.0635 14.348C54.9115 14.724 54.6435 15.024 54.2595 15.248C53.8755 15.464 53.3915 15.572 52.8075 15.572ZM60.3033 15.572C59.6633 15.572 59.1673 15.4 58.8153 15.056C58.4633 14.712 58.2873 14.22 58.2873 13.58V7.748H59.4393V13.532C59.4393 13.876 59.5233 14.14 59.6913 14.324C59.8673 14.508 60.1153 14.6 60.4353 14.6C60.7953 14.6 61.0953 14.5 61.3353 14.3L61.6953 15.128C61.5193 15.28 61.3073 15.392 61.0593 15.464C60.8193 15.536 60.5673 15.572 60.3033 15.572ZM57.2073 10.088V9.14H61.2633V10.088H57.2073ZM65.6492 15.572C65.0012 15.572 64.4212 15.432 63.9092 15.152C63.4052 14.872 63.0092 14.488 62.7212 14C62.4332 13.512 62.2892 12.952 62.2892 12.32C62.2892 11.688 62.4332 11.128 62.7212 10.64C63.0092 10.152 63.4052 9.772 63.9092 9.5C64.4212 9.22 65.0012 9.08 65.6492 9.08C66.2252 9.08 66.7372 9.196 67.1852 9.428C67.6412 9.652 67.9932 9.988 68.2412 10.436L67.3652 11C67.1572 10.688 66.9012 10.46 66.5972 10.316C66.3012 10.164 65.9812 10.088 65.6372 10.088C65.2212 10.088 64.8492 10.18 64.5212 10.364C64.1932 10.548 63.9332 10.808 63.7412 11.144C63.5492 11.472 63.4532 11.864 63.4532 12.32C63.4532 12.776 63.5492 13.172 63.7412 13.508C63.9332 13.844 64.1932 14.104 64.5212 14.288C64.8492 14.472 65.2212 14.564 65.6372 14.564C65.9812 14.564 66.3012 14.492 66.5972 14.348C66.9012 14.196 67.1572 13.964 67.3652 13.652L68.2412 14.204C67.9932 14.644 67.6412 14.984 67.1852 15.224C66.7372 15.456 66.2252 15.572 65.6492 15.572ZM73.0466 9.08C73.5666 9.08 74.0226 9.18 74.4146 9.38C74.8146 9.58 75.1266 9.884 75.3506 10.292C75.5746 10.7 75.6866 11.216 75.6866 11.84V15.5H74.5346V11.972C74.5346 11.356 74.3826 10.892 74.0786 10.58C73.7826 10.268 73.3626 10.112 72.8186 10.112C72.4106 10.112 72.0546 10.192 71.7506 10.352C71.4466 10.512 71.2106 10.748 71.0426 11.06C70.8826 11.372 70.8026 11.76 70.8026 12.224V15.5H69.6506V6.596H70.8026V10.856L70.5746 10.4C70.7826 9.984 71.1026 9.66 71.5346 9.428C71.9666 9.196 72.4706 9.08 73.0466 9.08ZM83.7652 15.572C83.1252 15.572 82.5572 15.432 82.0612 15.152C81.5652 14.872 81.1732 14.488 80.8852 14C80.5972 13.504 80.4532 12.944 80.4532 12.32C80.4532 11.688 80.5972 11.128 80.8852 10.64C81.1732 10.152 81.5652 9.772 82.0612 9.5C82.5572 9.22 83.1252 9.08 83.7652 9.08C84.3972 9.08 84.9612 9.22 85.4572 9.5C85.9612 9.772 86.3532 10.152 86.6332 10.64C86.9212 11.12 87.0652 11.68 87.0652 12.32C87.0652 12.952 86.9212 13.512 86.6332 14C86.3532 14.488 85.9612 14.872 85.4572 15.152C84.9612 15.432 84.3972 15.572 83.7652 15.572ZM83.7652 14.564C84.1732 14.564 84.5372 14.472 84.8572 14.288C85.1852 14.104 85.4412 13.844 85.6252 13.508C85.8092 13.164 85.9012 12.768 85.9012 12.32C85.9012 11.864 85.8092 11.472 85.6252 11.144C85.4412 10.808 85.1852 10.548 84.8572 10.364C84.5372 10.18 84.1732 10.088 83.7652 10.088C83.3572 10.088 82.9932 10.18 82.6732 10.364C82.3532 10.548 82.0972 10.808 81.9052 11.144C81.7132 11.472 81.6172 11.864 81.6172 12.32C81.6172 12.768 81.7132 13.164 81.9052 13.508C82.0972 13.844 82.3532 14.104 82.6732 14.288C82.9932 14.472 83.3572 14.564 83.7652 14.564ZM91.3344 15.572C90.7904 15.572 90.3104 15.472 89.8944 15.272C89.4864 15.072 89.1664 14.768 88.9344 14.36C88.7104 13.944 88.5984 13.424 88.5984 12.8V9.14H89.7504V12.668C89.7504 13.292 89.8984 13.76 90.1944 14.072C90.4984 14.384 90.9224 14.54 91.4664 14.54C91.8664 14.54 92.2144 14.46 92.5104 14.3C92.8064 14.132 93.0344 13.892 93.1944 13.58C93.3544 13.26 93.4344 12.876 93.4344 12.428V9.14H94.5864V15.5H93.4944V13.784L93.6744 14.24C93.4664 14.664 93.1544 14.992 92.7384 15.224C92.3224 15.456 91.8544 15.572 91.3344 15.572ZM96.7795 15.5V9.14H97.8835V10.868L97.7755 10.436C97.9515 9.996 98.2475 9.66 98.6635 9.428C99.0795 9.196 99.5915 9.08 100.2 9.08V10.196C100.152 10.188 100.104 10.184 100.056 10.184C100.016 10.184 99.9755 10.184 99.9355 10.184C99.3195 10.184 98.8315 10.368 98.4715 10.736C98.1115 11.104 97.9315 11.636 97.9315 12.332V15.5H96.7795ZM104.924 15.5V9.14H106.028V10.868L105.92 10.436C106.096 9.996 106.392 9.66 106.808 9.428C107.224 9.196 107.736 9.08 108.344 9.08V10.196C108.296 10.188 108.248 10.184 108.2 10.184C108.16 10.184 108.12 10.184 108.08 10.184C107.464 10.184 106.976 10.368 106.616 10.736C106.256 11.104 106.076 11.636 106.076 12.332V15.5H104.924ZM112.537 15.572C111.857 15.572 111.257 15.432 110.737 15.152C110.225 14.872 109.825 14.488 109.537 14C109.257 13.512 109.117 12.952 109.117 12.32C109.117 11.688 109.253 11.128 109.525 10.64C109.805 10.152 110.185 9.772 110.665 9.5C111.153 9.22 111.701 9.08 112.309 9.08C112.925 9.08 113.469 9.216 113.941 9.488C114.413 9.76 114.781 10.144 115.045 10.64C115.317 11.128 115.453 11.7 115.453 12.356C115.453 12.404 115.449 12.46 115.441 12.524C115.441 12.588 115.437 12.648 115.429 12.704H110.017V11.876H114.829L114.361 12.164C114.369 11.756 114.285 11.392 114.109 11.072C113.933 10.752 113.689 10.504 113.377 10.328C113.073 10.144 112.717 10.052 112.309 10.052C111.909 10.052 111.553 10.144 111.241 10.328C110.929 10.504 110.685 10.756 110.509 11.084C110.333 11.404 110.245 11.772 110.245 12.188V12.38C110.245 12.804 110.341 13.184 110.533 13.52C110.733 13.848 111.009 14.104 111.361 14.288C111.713 14.472 112.117 14.564 112.573 14.564C112.949 14.564 113.289 14.5 113.593 14.372C113.905 14.244 114.177 14.052 114.409 13.796L115.045 14.54C114.757 14.876 114.397 15.132 113.965 15.308C113.541 15.484 113.065 15.572 112.537 15.572ZM119.885 15.572C119.205 15.572 118.605 15.432 118.085 15.152C117.573 14.872 117.173 14.488 116.885 14C116.605 13.512 116.465 12.952 116.465 12.32C116.465 11.688 116.601 11.128 116.873 10.64C117.153 10.152 117.533 9.772 118.013 9.5C118.501 9.22 119.049 9.08 119.657 9.08C120.273 9.08 120.817 9.216 121.289 9.488C121.761 9.76 122.129 10.144 122.393 10.64C122.665 11.128 122.801 11.7 122.801 12.356C122.801 12.404 122.797 12.46 122.789 12.524C122.789 12.588 122.785 12.648 122.777 12.704H117.365V11.876H122.177L121.709 12.164C121.717 11.756 121.633 11.392 121.457 11.072C121.281 10.752 121.037 10.504 120.725 10.328C120.421 10.144 120.065 10.052 119.657 10.052C119.257 10.052 118.901 10.144 118.589 10.328C118.277 10.504 118.033 10.756 117.857 11.084C117.681 11.404 117.593 11.772 117.593 12.188V12.38C117.593 12.804 117.689 13.184 117.881 13.52C118.081 13.848 118.357 14.104 118.709 14.288C119.061 14.472 119.465 14.564 119.921 14.564C120.297 14.564 120.637 14.5 120.941 14.372C121.253 14.244 121.525 14.052 121.757 13.796L122.393 14.54C122.105 14.876 121.745 15.132 121.313 15.308C120.889 15.484 120.413 15.572 119.885 15.572ZM124.401 15.5V6.596H125.553V15.5H124.401Z" fill="#0F0F0F"/>
</svg>
