<svg width="590" height="135" viewBox="0 0 590 135" fill="none" xmlns="http://www.w3.org/2000/svg">
<path d="M23.543 46.62C20.1536 46.62 17.033 46.0827 14.181 45.008C11.3703 43.892 8.91098 42.342 6.80298 40.358C4.69498 38.3327 3.06231 35.956 1.90498 33.228C0.747646 30.5 0.168979 27.524 0.168979 24.3C0.168979 21.076 0.747646 18.1 1.90498 15.372C3.06231 12.644 4.69498 10.288 6.80298 8.304C8.95231 6.27867 11.453 4.72867 14.305 3.654C17.157 2.538 20.2776 1.98 23.667 1.98C27.3456 1.98 30.6523 2.57933 33.587 3.778C36.563 4.97667 39.0636 6.73333 41.089 9.048L36.005 14.008C34.3103 12.3133 32.471 11.0733 30.487 10.288C28.5443 9.46133 26.395 9.048 24.039 9.048C21.7656 9.048 19.6576 9.42 17.715 10.164C15.7723 10.908 14.0983 11.962 12.693 13.326C11.2876 14.69 10.1923 16.302 9.40698 18.162C8.66298 20.022 8.29098 22.068 8.29098 24.3C8.29098 26.4907 8.66298 28.516 9.40698 30.376C10.1923 32.236 11.2876 33.8687 12.693 35.274C14.0983 36.638 15.7516 37.692 17.653 38.436C19.5543 39.18 21.6623 39.552 23.977 39.552C26.1263 39.552 28.193 39.2213 30.177 38.56C32.2023 37.8573 34.1243 36.7 35.943 35.088L40.531 41.102C38.2576 42.9207 35.6123 44.3053 32.595 45.256C29.619 46.1653 26.6016 46.62 23.543 46.62ZM32.905 40.048V23.804H40.531V41.102L32.905 40.048ZM47.0076 46V-0.00400269H54.7576V46H47.0076ZM76.3994 46.434C73.0101 46.434 69.9928 45.7107 67.3474 44.264C64.7021 42.776 62.6148 40.7507 61.0854 38.188C59.5561 35.6253 58.7914 32.7113 58.7914 29.446C58.7914 26.1393 59.5561 23.2253 61.0854 20.704C62.6148 18.1413 64.7021 16.1367 67.3474 14.69C69.9928 13.2433 73.0101 12.52 76.3994 12.52C79.8301 12.52 82.8681 13.2433 85.5134 14.69C88.2001 16.1367 90.2874 18.1207 91.7754 20.642C93.3048 23.1633 94.0694 26.098 94.0694 29.446C94.0694 32.7113 93.3048 35.6253 91.7754 38.188C90.2874 40.7507 88.2001 42.776 85.5134 44.264C82.8681 45.7107 79.8301 46.434 76.3994 46.434ZM76.3994 39.8C78.3008 39.8 79.9954 39.3867 81.4834 38.56C82.9714 37.7333 84.1288 36.5347 84.9554 34.964C85.8234 33.3933 86.2574 31.554 86.2574 29.446C86.2574 27.2967 85.8234 25.4573 84.9554 23.928C84.1288 22.3573 82.9714 21.1587 81.4834 20.332C79.9954 19.5053 78.3214 19.092 76.4614 19.092C74.5601 19.092 72.8654 19.5053 71.3774 20.332C69.9308 21.1587 68.7734 22.3573 67.9054 23.928C67.0374 25.4573 66.6034 27.2967 66.6034 29.446C66.6034 31.554 67.0374 33.3933 67.9054 34.964C68.7734 36.5347 69.9308 37.7333 71.3774 38.56C72.8654 39.3867 74.5394 39.8 76.3994 39.8ZM116.422 46.434C113.612 46.434 111.111 45.814 108.92 44.574C106.73 43.334 104.994 41.474 103.712 38.994C102.472 36.4727 101.852 33.29 101.852 29.446C101.852 25.5607 102.493 22.378 103.774 19.898C105.097 17.418 106.854 15.5787 109.044 14.38C111.276 13.14 113.736 12.52 116.422 12.52C119.688 12.52 122.56 13.2227 125.04 14.628C127.562 16.0333 129.546 17.9967 130.992 20.518C132.48 23.0393 133.224 26.0153 133.224 29.446C133.224 32.8767 132.48 35.8527 130.992 38.374C129.546 40.8953 127.562 42.8793 125.04 44.326C122.56 45.7313 119.688 46.434 116.422 46.434ZM98.0704 46V-0.00400269H105.82V20.58L105.2 29.384L105.448 38.188V46H98.0704ZM115.554 39.8C117.414 39.8 119.068 39.3867 120.514 38.56C122.002 37.7333 123.18 36.5347 124.048 34.964C124.916 33.3933 125.35 31.554 125.35 29.446C125.35 27.2967 124.916 25.4573 124.048 23.928C123.18 22.3573 122.002 21.1587 120.514 20.332C119.068 19.5053 117.414 19.092 115.554 19.092C113.694 19.092 112.02 19.5053 110.532 20.332C109.044 21.1587 107.866 22.3573 106.998 23.928C106.13 25.4573 105.696 27.2967 105.696 29.446C105.696 31.554 106.13 33.3933 106.998 34.964C107.866 36.5347 109.044 37.7333 110.532 38.56C112.02 39.3867 113.694 39.8 115.554 39.8ZM157.138 46V39.304L156.704 37.878V26.16C156.704 23.8867 156.022 22.13 154.658 20.89C153.294 19.6087 151.228 18.968 148.458 18.968C146.598 18.968 144.759 19.2573 142.94 19.836C141.163 20.4147 139.654 21.2207 138.414 22.254L135.376 16.612C137.154 15.248 139.262 14.2353 141.7 13.574C144.18 12.8713 146.743 12.52 149.388 12.52C154.183 12.52 157.882 13.6773 160.486 15.992C163.132 18.2653 164.454 21.7993 164.454 26.594V46H157.138ZM146.722 46.434C144.242 46.434 142.072 46.0207 140.212 45.194C138.352 44.326 136.906 43.148 135.872 41.66C134.88 40.1307 134.384 38.4153 134.384 36.514C134.384 34.654 134.818 32.98 135.686 31.492C136.596 30.004 138.063 28.826 140.088 27.958C142.114 27.09 144.8 26.656 148.148 26.656H157.758V31.802H148.706C146.061 31.802 144.284 32.236 143.374 33.104C142.465 33.9307 142.01 34.964 142.01 36.204C142.01 37.6093 142.568 38.7253 143.684 39.552C144.8 40.3787 146.35 40.792 148.334 40.792C150.236 40.792 151.93 40.358 153.418 39.49C154.948 38.622 156.043 37.3407 156.704 35.646L158.006 40.296C157.262 42.2387 155.919 43.7473 153.976 44.822C152.075 45.8967 149.657 46.434 146.722 46.434ZM170.991 46V-0.00400269H178.741V46H170.991ZM199.971 46V2.6H220.307C225.515 2.6 229.483 3.63333 232.211 5.7C234.939 7.72533 236.303 10.4533 236.303 13.884C236.303 16.1987 235.766 18.1827 234.691 19.836C233.617 21.448 232.17 22.7087 230.351 23.618C228.574 24.486 226.631 24.92 224.523 24.92L225.639 22.688C228.078 22.688 230.269 23.1427 232.211 24.052C234.154 24.92 235.683 26.2013 236.799 27.896C237.957 29.5907 238.535 31.6987 238.535 34.22C238.535 37.94 237.109 40.8333 234.257 42.9C231.405 44.9667 227.169 46 221.547 46H199.971ZM208.031 39.676H221.051C224.069 39.676 226.383 39.18 227.995 38.188C229.607 37.196 230.413 35.6047 230.413 33.414C230.413 31.2647 229.607 29.694 227.995 28.702C226.383 27.6687 224.069 27.152 221.051 27.152H207.411V20.89H219.439C222.25 20.89 224.399 20.394 225.887 19.402C227.417 18.41 228.181 16.922 228.181 14.938C228.181 12.9127 227.417 11.404 225.887 10.412C224.399 9.42 222.25 8.924 219.439 8.924H208.031V39.676ZM242.983 46V12.892H250.361V22.006L249.493 19.34C250.485 17.108 252.035 15.4133 254.143 14.256C256.293 13.0987 258.959 12.52 262.141 12.52V19.898C261.811 19.8153 261.501 19.774 261.211 19.774C260.922 19.7327 260.633 19.712 260.343 19.712C257.409 19.712 255.073 20.58 253.337 22.316C251.601 24.0107 250.733 26.5527 250.733 29.942V46H242.983ZM283.342 46V39.304L282.908 37.878V26.16C282.908 23.8867 282.226 22.13 280.862 20.89C279.498 19.6087 277.432 18.968 274.662 18.968C272.802 18.968 270.963 19.2573 269.144 19.836C267.367 20.4147 265.858 21.2207 264.618 22.254L261.58 16.612C263.358 15.248 265.466 14.2353 267.904 13.574C270.384 12.8713 272.947 12.52 275.592 12.52C280.387 12.52 284.086 13.6773 286.69 15.992C289.336 18.2653 290.658 21.7993 290.658 26.594V46H283.342ZM272.926 46.434C270.446 46.434 268.276 46.0207 266.416 45.194C264.556 44.326 263.11 43.148 262.076 41.66C261.084 40.1307 260.588 38.4153 260.588 36.514C260.588 34.654 261.022 32.98 261.89 31.492C262.8 30.004 264.267 28.826 266.292 27.958C268.318 27.09 271.004 26.656 274.352 26.656H283.962V31.802H274.91C272.265 31.802 270.488 32.236 269.578 33.104C268.669 33.9307 268.214 34.964 268.214 36.204C268.214 37.6093 268.772 38.7253 269.888 39.552C271.004 40.3787 272.554 40.792 274.538 40.792C276.44 40.792 278.134 40.358 279.622 39.49C281.152 38.622 282.247 37.3407 282.908 35.646L284.21 40.296C283.466 42.2387 282.123 43.7473 280.18 44.822C278.279 45.8967 275.861 46.434 272.926 46.434ZM315.981 12.52C318.626 12.52 320.982 13.0367 323.049 14.07C325.157 15.1033 326.81 16.6947 328.009 18.844C329.207 20.952 329.807 23.68 329.807 27.028V46H322.057V28.02C322.057 25.0853 321.354 22.8947 319.949 21.448C318.585 20.0013 316.663 19.278 314.183 19.278C312.364 19.278 310.752 19.65 309.347 20.394C307.941 21.138 306.846 22.254 306.061 23.742C305.317 25.1887 304.945 27.028 304.945 29.26V46H297.195V12.892H304.573V21.82L303.271 19.092C304.428 16.984 306.102 15.372 308.293 14.256C310.525 13.0987 313.087 12.52 315.981 12.52ZM350.3 46.434C347.118 46.434 344.245 45.7313 341.682 44.326C339.161 42.8793 337.177 40.8953 335.73 38.374C334.284 35.8527 333.56 32.8767 333.56 29.446C333.56 26.0153 334.284 23.0393 335.73 20.518C337.177 17.9967 339.161 16.0333 341.682 14.628C344.245 13.2227 347.118 12.52 350.3 12.52C353.07 12.52 355.55 13.14 357.74 14.38C359.931 15.5787 361.667 17.418 362.948 19.898C364.23 22.378 364.87 25.5607 364.87 29.446C364.87 33.29 364.25 36.4727 363.01 38.994C361.77 41.474 360.055 43.334 357.864 44.574C355.674 45.814 353.152 46.434 350.3 46.434ZM351.23 39.8C353.09 39.8 354.744 39.3867 356.19 38.56C357.678 37.7333 358.856 36.5347 359.724 34.964C360.634 33.3933 361.088 31.554 361.088 29.446C361.088 27.2967 360.634 25.4573 359.724 23.928C358.856 22.3573 357.678 21.1587 356.19 20.332C354.744 19.5053 353.09 19.092 351.23 19.092C349.37 19.092 347.696 19.5053 346.208 20.332C344.762 21.1587 343.584 22.3573 342.674 23.928C341.806 25.4573 341.372 27.2967 341.372 29.446C341.372 31.554 341.806 33.3933 342.674 34.964C343.584 36.5347 344.762 37.7333 346.208 38.56C347.696 39.3867 349.37 39.8 351.23 39.8ZM361.274 46V38.188L361.584 29.384L360.964 20.58V-0.00400269H368.652V46H361.274ZM417.231 12.52C419.876 12.52 422.212 13.0367 424.237 14.07C426.304 15.1033 427.916 16.6947 429.073 18.844C430.23 20.952 430.809 23.68 430.809 27.028V46H423.059V28.02C423.059 25.0853 422.418 22.8947 421.137 21.448C419.856 20.0013 418.016 19.278 415.619 19.278C413.924 19.278 412.416 19.65 411.093 20.394C409.812 21.138 408.799 22.2333 408.055 23.68C407.352 25.1267 407.001 26.966 407.001 29.198V46H399.251V28.02C399.251 25.0853 398.61 22.8947 397.329 21.448C396.048 20.0013 394.208 19.278 391.811 19.278C390.116 19.278 388.608 19.65 387.285 20.394C386.004 21.138 384.991 22.2333 384.247 23.68C383.544 25.1267 383.193 26.966 383.193 29.198V46H375.443V12.892H382.821V21.696L381.519 19.092C382.635 16.9427 384.247 15.31 386.355 14.194C388.504 13.078 390.943 12.52 393.671 12.52C396.771 12.52 399.458 13.2847 401.731 14.814C404.046 16.3433 405.575 18.658 406.319 21.758L403.281 20.704C404.356 18.224 406.133 16.24 408.613 14.752C411.093 13.264 413.966 12.52 417.231 12.52ZM457.7 46V39.304L457.266 37.878V26.16C457.266 23.8867 456.584 22.13 455.22 20.89C453.856 19.6087 451.79 18.968 449.02 18.968C447.16 18.968 445.321 19.2573 443.502 19.836C441.725 20.4147 440.216 21.2207 438.976 22.254L435.938 16.612C437.716 15.248 439.824 14.2353 442.262 13.574C444.742 12.8713 447.305 12.52 449.95 12.52C454.745 12.52 458.444 13.6773 461.048 15.992C463.694 18.2653 465.016 21.7993 465.016 26.594V46H457.7ZM447.284 46.434C444.804 46.434 442.634 46.0207 440.774 45.194C438.914 44.326 437.468 43.148 436.434 41.66C435.442 40.1307 434.946 38.4153 434.946 36.514C434.946 34.654 435.38 32.98 436.248 31.492C437.158 30.004 438.625 28.826 440.65 27.958C442.676 27.09 445.362 26.656 448.71 26.656H458.32V31.802H449.268C446.623 31.802 444.846 32.236 443.936 33.104C443.027 33.9307 442.572 34.964 442.572 36.204C442.572 37.6093 443.13 38.7253 444.246 39.552C445.362 40.3787 446.912 40.792 448.896 40.792C450.798 40.792 452.492 40.358 453.98 39.49C455.51 38.622 456.605 37.3407 457.266 35.646L458.568 40.296C457.824 42.2387 456.481 43.7473 454.538 44.822C452.637 45.8967 450.219 46.434 447.284 46.434ZM477.877 38.622L478.063 28.888L495.361 12.892H504.661L489.967 27.648L485.875 31.058L477.877 38.622ZM471.553 46V-0.00400269H479.303V46H471.553ZM496.539 46L484.449 31.058L489.347 24.858L505.963 46H496.539ZM521.789 46.434C518.11 46.434 514.886 45.7107 512.117 44.264C509.389 42.776 507.26 40.7507 505.731 38.188C504.243 35.6253 503.499 32.7113 503.499 29.446C503.499 26.1393 504.222 23.2253 505.669 20.704C507.157 18.1413 509.182 16.1367 511.745 14.69C514.349 13.2433 517.304 12.52 520.611 12.52C523.835 12.52 526.707 13.2227 529.229 14.628C531.75 16.0333 533.734 18.0173 535.181 20.58C536.627 23.1427 537.351 26.16 537.351 29.632C537.351 29.9627 537.33 30.3347 537.289 30.748C537.289 31.1613 537.268 31.554 537.227 31.926H509.637V26.78H533.135L530.097 28.392C530.138 26.4907 529.745 24.8167 528.919 23.37C528.092 21.9233 526.955 20.7867 525.509 19.96C524.103 19.1333 522.471 18.72 520.611 18.72C518.709 18.72 517.035 19.1333 515.589 19.96C514.183 20.7867 513.067 21.944 512.241 23.432C511.455 24.8787 511.063 26.594 511.063 28.578V29.818C511.063 31.802 511.517 33.5587 512.427 35.088C513.336 36.6173 514.617 37.7953 516.271 38.622C517.924 39.4487 519.825 39.862 521.975 39.862C523.835 39.862 525.509 39.5727 526.997 38.994C528.485 38.4153 529.807 37.506 530.965 36.266L535.119 41.04C533.631 42.776 531.75 44.1193 529.477 45.07C527.245 45.9793 524.682 46.434 521.789 46.434ZM541.385 46V12.892H548.763V22.006L547.895 19.34C548.887 17.108 550.437 15.4133 552.545 14.256C554.694 13.0987 557.36 12.52 560.543 12.52V19.898C560.212 19.8153 559.902 19.774 559.613 19.774C559.324 19.7327 559.034 19.712 558.745 19.712C555.81 19.712 553.475 20.58 551.739 22.316C550.003 24.0107 549.135 26.5527 549.135 29.942V46H541.385ZM574.24 46.434C571.471 46.434 568.805 46.0827 566.242 45.38C563.721 44.636 561.716 43.7473 560.228 42.714L563.204 36.824C564.692 37.7747 566.469 38.56 568.536 39.18C570.603 39.8 572.669 40.11 574.736 40.11C577.175 40.11 578.931 39.7793 580.006 39.118C581.122 38.4567 581.68 37.568 581.68 36.452C581.68 35.5427 581.308 34.8607 580.564 34.406C579.82 33.91 578.849 33.538 577.65 33.29C576.451 33.042 575.108 32.8147 573.62 32.608C572.173 32.4013 570.706 32.1327 569.218 31.802C567.771 31.43 566.449 30.9133 565.25 30.252C564.051 29.5493 563.08 28.6193 562.336 27.462C561.592 26.3047 561.22 24.7753 561.22 22.874C561.22 20.766 561.819 18.9473 563.018 17.418C564.217 15.8473 565.891 14.6487 568.04 13.822C570.231 12.954 572.814 12.52 575.79 12.52C578.022 12.52 580.275 12.768 582.548 13.264C584.821 13.76 586.702 14.4627 588.19 15.372L585.214 21.262C583.643 20.3113 582.052 19.6707 580.44 19.34C578.869 18.968 577.299 18.782 575.728 18.782C573.372 18.782 571.615 19.1333 570.458 19.836C569.342 20.5387 568.784 21.4273 568.784 22.502C568.784 23.494 569.156 24.238 569.9 24.734C570.644 25.23 571.615 25.6227 572.814 25.912C574.013 26.2013 575.335 26.4493 576.782 26.656C578.27 26.8213 579.737 27.09 581.184 27.462C582.631 27.834 583.953 28.3507 585.152 29.012C586.392 29.632 587.384 30.5207 588.128 31.678C588.872 32.8353 589.244 34.344 589.244 36.204C589.244 38.2707 588.624 40.0687 587.384 41.598C586.185 43.1273 584.47 44.326 582.238 45.194C580.006 46.0207 577.34 46.434 574.24 46.434ZM118.597 88.52C121.242 88.52 123.577 89.0367 125.603 90.07C127.669 91.1033 129.281 92.6947 130.439 94.844C131.596 96.952 132.175 99.68 132.175 103.028V122H124.425V104.02C124.425 101.085 123.784 98.8947 122.503 97.448C121.221 96.0013 119.382 95.278 116.985 95.278C115.29 95.278 113.781 95.65 112.459 96.394C111.177 97.138 110.165 98.2333 109.421 99.68C108.718 101.127 108.367 102.966 108.367 105.198V122H100.617V104.02C100.617 101.085 99.9761 98.8947 98.6947 97.448C97.4134 96.0013 95.5741 95.278 93.1767 95.278C91.4821 95.278 89.9734 95.65 88.6507 96.394C87.3694 97.138 86.3567 98.2333 85.6127 99.68C84.9101 101.127 84.5587 102.966 84.5587 105.198V122H76.8087V88.892H84.1867V97.696L82.8847 95.092C84.0007 92.9427 85.6127 91.31 87.7207 90.194C89.8701 89.078 92.3087 88.52 95.0367 88.52C98.1367 88.52 100.823 89.2847 103.097 90.814C105.411 92.3433 106.941 94.658 107.685 97.758L104.647 96.704C105.721 94.224 107.499 92.24 109.979 90.752C112.459 89.264 115.331 88.52 118.597 88.52ZM159.066 122V115.304L158.632 113.878V102.16C158.632 99.8867 157.95 98.13 156.586 96.89C155.222 95.6087 153.156 94.968 150.386 94.968C148.526 94.968 146.687 95.2573 144.868 95.836C143.091 96.4147 141.582 97.2207 140.342 98.254L137.304 92.612C139.082 91.248 141.19 90.2353 143.628 89.574C146.108 88.8713 148.671 88.52 151.316 88.52C156.111 88.52 159.81 89.6773 162.414 91.992C165.06 94.2653 166.382 97.7993 166.382 102.594V122H159.066ZM148.65 122.434C146.17 122.434 144 122.021 142.14 121.194C140.28 120.326 138.834 119.148 137.8 117.66C136.808 116.131 136.312 114.415 136.312 112.514C136.312 110.654 136.746 108.98 137.614 107.492C138.524 106.004 139.991 104.826 142.016 103.958C144.042 103.09 146.728 102.656 150.076 102.656H159.686V107.802H150.634C147.989 107.802 146.212 108.236 145.302 109.104C144.393 109.931 143.938 110.964 143.938 112.204C143.938 113.609 144.496 114.725 145.612 115.552C146.728 116.379 148.278 116.792 150.262 116.792C152.164 116.792 153.858 116.358 155.346 115.49C156.876 114.622 157.971 113.341 158.632 111.646L159.934 116.296C159.19 118.239 157.847 119.747 155.904 120.822C154.003 121.897 151.585 122.434 148.65 122.434ZM179.242 114.622L179.428 104.888L196.726 88.892H206.026L191.332 103.648L187.24 107.058L179.242 114.622ZM172.918 122V75.996H180.668V122H172.918ZM197.904 122L185.814 107.058L190.712 100.858L207.328 122H197.904ZM208.924 122V88.892H216.674V122H208.924ZM212.83 83.436C211.384 83.436 210.185 82.9813 209.234 82.072C208.325 81.1627 207.87 80.0673 207.87 78.786C207.87 77.4633 208.325 76.368 209.234 75.5C210.185 74.5907 211.384 74.136 212.83 74.136C214.277 74.136 215.455 74.57 216.364 75.438C217.315 76.2647 217.79 77.3187 217.79 78.6C217.79 79.964 217.336 81.1213 216.426 82.072C215.517 82.9813 214.318 83.436 212.83 83.436ZM242.222 88.52C244.868 88.52 247.224 89.0367 249.29 90.07C251.398 91.1033 253.052 92.6947 254.25 94.844C255.449 96.952 256.048 99.68 256.048 103.028V122H248.298V104.02C248.298 101.085 247.596 98.8947 246.19 97.448C244.826 96.0013 242.904 95.278 240.424 95.278C238.606 95.278 236.994 95.65 235.588 96.394C234.183 97.138 233.088 98.254 232.302 99.742C231.558 101.189 231.186 103.028 231.186 105.26V122H223.436V88.892H230.814V97.82L229.512 95.092C230.67 92.984 232.344 91.372 234.534 90.256C236.766 89.0987 239.329 88.52 242.222 88.52ZM277.534 134.462C274.476 134.462 271.479 134.049 268.544 133.222C265.651 132.437 263.274 131.279 261.414 129.75L264.886 123.922C266.333 125.121 268.152 126.071 270.342 126.774C272.574 127.518 274.827 127.89 277.1 127.89C280.738 127.89 283.404 127.043 285.098 125.348C286.793 123.695 287.64 121.194 287.64 117.846V111.956L288.26 104.454L288.012 96.952V88.892H295.39V116.978C295.39 122.971 293.861 127.373 290.802 130.184C287.744 133.036 283.321 134.462 277.534 134.462ZM276.542 120.512C273.401 120.512 270.549 119.851 267.986 118.528C265.465 117.164 263.46 115.283 261.972 112.886C260.526 110.489 259.802 107.678 259.802 104.454C259.802 101.271 260.526 98.4813 261.972 96.084C263.46 93.6867 265.465 91.8267 267.986 90.504C270.549 89.1813 273.401 88.52 276.542 88.52C279.353 88.52 281.874 89.078 284.106 90.194C286.338 91.31 288.116 93.046 289.438 95.402C290.802 97.758 291.484 100.775 291.484 104.454C291.484 108.133 290.802 111.171 289.438 113.568C288.116 115.924 286.338 117.681 284.106 118.838C281.874 119.954 279.353 120.512 276.542 120.512ZM277.72 113.94C279.663 113.94 281.399 113.547 282.928 112.762C284.458 111.935 285.636 110.819 286.462 109.414C287.33 107.967 287.764 106.314 287.764 104.454C287.764 102.594 287.33 100.961 286.462 99.556C285.636 98.1093 284.458 97.014 282.928 96.27C281.399 95.4847 279.663 95.092 277.72 95.092C275.778 95.092 274.021 95.4847 272.45 96.27C270.921 97.014 269.722 98.1093 268.854 99.556C268.028 100.961 267.614 102.594 267.614 104.454C267.614 106.314 268.028 107.967 268.854 109.414C269.722 110.819 270.921 111.935 272.45 112.762C274.021 113.547 275.778 113.94 277.72 113.94Z" fill="#967D69"/>
<path d="M316.638 122V78.6H323.272L350.49 112.018H347.204V78.6H355.202V122H348.568L321.35 88.582H324.636V122H316.638ZM370.861 96.642H392.437V103.276H370.861V96.642ZM371.481 115.242H395.971V122H363.421V78.6H395.103V85.358H371.481V115.242ZM421.882 122.62C418.493 122.62 415.372 122.062 412.52 120.946C409.668 119.83 407.188 118.28 405.08 116.296C402.972 114.271 401.34 111.915 400.182 109.228C399.025 106.5 398.446 103.524 398.446 100.3C398.446 97.076 399.025 94.1207 400.182 91.434C401.34 88.706 402.972 86.35 405.08 84.366C407.188 82.3407 409.668 80.77 412.52 79.654C415.372 78.538 418.472 77.98 421.82 77.98C425.21 77.98 428.31 78.538 431.12 79.654C433.972 80.77 436.452 82.3407 438.56 84.366C440.668 86.35 442.301 88.706 443.458 91.434C444.616 94.1207 445.194 97.076 445.194 100.3C445.194 103.524 444.616 106.5 443.458 109.228C442.301 111.956 440.668 114.312 438.56 116.296C436.452 118.28 433.972 119.83 431.12 120.946C428.31 122.062 425.23 122.62 421.882 122.62ZM421.82 115.552C424.011 115.552 426.036 115.18 427.896 114.436C429.756 113.692 431.368 112.638 432.732 111.274C434.096 109.869 435.15 108.257 435.894 106.438C436.68 104.578 437.072 102.532 437.072 100.3C437.072 98.068 436.68 96.0427 435.894 94.224C435.15 92.364 434.096 90.752 432.732 89.388C431.368 87.9827 429.756 86.908 427.896 86.164C426.036 85.42 424.011 85.048 421.82 85.048C419.63 85.048 417.604 85.42 415.744 86.164C413.926 86.908 412.314 87.9827 410.908 89.388C409.544 90.752 408.47 92.364 407.684 94.224C406.94 96.0427 406.568 98.068 406.568 100.3C406.568 102.491 406.94 104.516 407.684 106.376C408.47 108.236 409.544 109.869 410.908 111.274C412.272 112.638 413.884 113.692 415.744 114.436C417.604 115.18 419.63 115.552 421.82 115.552ZM450.328 122V78.6H456.962L484.18 112.018H480.894V78.6H488.892V122H482.258L455.04 88.582H458.326V122H450.328ZM510.565 122.62C507.176 122.62 503.931 122.145 500.831 121.194C497.731 120.202 495.272 118.941 493.453 117.412L496.243 111.15C497.979 112.514 500.128 113.651 502.691 114.56C505.254 115.469 507.878 115.924 510.565 115.924C512.838 115.924 514.678 115.676 516.083 115.18C517.488 114.684 518.522 114.023 519.183 113.196C519.844 112.328 520.175 111.357 520.175 110.282C520.175 108.959 519.7 107.905 518.749 107.12C517.798 106.293 516.558 105.653 515.029 105.198C513.541 104.702 511.867 104.247 510.007 103.834C508.188 103.421 506.349 102.945 504.489 102.408C502.67 101.829 500.996 101.106 499.467 100.238C497.979 99.3287 496.76 98.13 495.809 96.642C494.858 95.154 494.383 93.2527 494.383 90.938C494.383 88.582 495.003 86.4327 496.243 84.49C497.524 82.506 499.446 80.9353 502.009 79.778C504.613 78.5793 507.899 77.98 511.867 77.98C514.471 77.98 517.054 78.3107 519.617 78.972C522.18 79.6333 524.412 80.584 526.313 81.824L523.771 88.086C521.828 86.9287 519.824 86.0813 517.757 85.544C515.69 84.9653 513.706 84.676 511.805 84.676C509.573 84.676 507.754 84.9447 506.349 85.482C504.985 86.0193 503.972 86.722 503.311 87.59C502.691 88.458 502.381 89.45 502.381 90.566C502.381 91.8887 502.836 92.9633 503.745 93.79C504.696 94.5753 505.915 95.1953 507.403 95.65C508.932 96.1047 510.627 96.5593 512.487 97.014C514.347 97.4273 516.186 97.9027 518.005 98.44C519.865 98.9773 521.539 99.68 523.027 100.548C524.556 101.416 525.776 102.594 526.685 104.082C527.636 105.57 528.111 107.451 528.111 109.724C528.111 112.039 527.47 114.188 526.189 116.172C524.949 118.115 523.027 119.685 520.423 120.884C517.819 122.041 514.533 122.62 510.565 122.62Z" fill="#008080"/>
</svg>
