<svg width="118" height="22" viewBox="0 0 118 22" fill="none" xmlns="http://www.w3.org/2000/svg">
<path d="M14.25 3.09375V2.25H20.5938V3.09375H18.0938V20.8438L16.4375 21.1562L4.3125 6.6875V20.1562H6.125C6.5625 20.1979 6.84375 20.4792 6.96875 21H0.53125V20.1562H3.03125V3.09375H0.53125V2.25H5.5L16.8125 15.7812V3.09375H14.25ZM26.4475 8C26.2183 8 25.9788 8.03125 25.7288 8.09375C24.2496 8.55208 23.4683 10.2604 23.385 13.2188L25.7913 13.3125C26.6663 13.3333 27.3329 13.2812 27.7913 13.1562C28.4996 12.9062 28.8538 12.2917 28.8538 11.3125C28.8538 10.9583 28.8225 10.6146 28.76 10.2812C28.51 8.76042 27.7392 8 26.4475 8ZM32.1663 17.8438C32.0413 18.1562 31.885 18.4688 31.6975 18.7812C30.635 20.4688 28.9163 21.3125 26.5413 21.3125C25.1454 21.3125 23.885 21 22.76 20.375C20.6558 19.1458 19.6038 17.1042 19.6038 14.25C19.6038 12.5 20.0517 11.0104 20.9475 9.78125C22.2183 8.05208 24.0517 7.1875 26.4475 7.1875C27.76 7.1875 28.9371 7.4375 29.9788 7.9375C31.6454 8.77083 32.4788 10.0104 32.4788 11.6562C32.4788 12.1146 32.3746 12.5104 32.1663 12.8438C31.5413 13.8021 29.6663 14.25 26.5413 14.1875L23.385 14.125C23.385 14.1458 23.385 14.1667 23.385 14.1875C23.4892 18.3333 24.76 20.4062 27.1975 20.4062C27.6558 20.4062 28.1038 20.3333 28.5413 20.1875C29.8538 19.7708 30.8121 18.9062 31.4163 17.5938L32.1663 17.8438ZM35.895 14.25C35.895 15.7292 35.9992 16.9167 36.2075 17.8125C36.6242 19.6042 37.6138 20.5 39.1763 20.5C39.6971 20.5 40.1658 20.3958 40.5825 20.1875C41.8533 19.5 42.4888 17.4792 42.4888 14.125C42.4888 12.7083 42.3846 11.5625 42.1763 10.6875C41.7596 8.89583 40.7596 8 39.1763 8C38.5721 8 38.0408 8.13542 37.5825 8.40625C36.4575 9.13542 35.895 11.0833 35.895 14.25ZM39.3013 7.1875C40.9679 7.1875 42.4054 7.63542 43.6138 8.53125C45.3638 9.82292 46.2388 11.6875 46.2388 14.125C46.2388 15.9375 45.6971 17.5 44.6138 18.8125C43.2388 20.4792 41.395 21.3125 39.0825 21.3125C37.395 21.3125 35.9263 20.8125 34.6763 19.8125C32.9679 18.4375 32.1138 16.5417 32.1138 14.125C32.1138 12.375 32.6346 10.875 33.6763 9.625C35.0513 8 36.9263 7.1875 39.3013 7.1875ZM52.155 20.1875C52.28 20.1875 52.405 20.1979 52.53 20.2188C52.8008 20.2812 52.9362 20.5417 52.9362 21H45.7487V20.1875C46.1237 20.1875 46.4467 20.1562 46.7175 20.0938C47.405 19.9479 47.7487 19.4167 47.7487 18.5V8.40625H45.7487V7.625H50.9987L51.155 10.2188C51.3633 9.78125 51.6342 9.36458 51.9675 8.96875C53.0092 7.78125 54.28 7.1875 55.78 7.1875C56.405 7.1875 56.9883 7.30208 57.53 7.53125C59.2383 8.23958 60.0925 9.82292 60.0925 12.2812V20.1875H61.3112C61.4362 20.1875 61.5612 20.1979 61.6862 20.2188C61.9571 20.2812 62.0925 20.5417 62.0925 21H54.9362V20.1875C55.3737 20.1875 55.7071 20.1458 55.9362 20.0625C56.4154 19.8958 56.655 19.375 56.655 18.5V11.8125C56.655 11.3542 56.6029 10.9375 56.4987 10.5625C56.1862 9.33333 55.4467 8.71875 54.28 8.71875C53.8842 8.71875 53.4883 8.82292 53.0925 9.03125C51.9883 9.65625 51.3633 10.8021 51.2175 12.4688L51.1862 20.1875H52.155Z" fill="#967D69"/>
<path d="M74.04 21H64.29V20.1562H67.2588V3.09375H66.3525C65.9358 3.09375 65.5608 3.14583 65.2275 3.25C64.1233 3.58333 63.3213 4.5625 62.8213 6.1875L62.0088 8.78125H61.0713L61.2275 2.25H77.165L77.29 8.78125H76.3838L75.5713 6.1875C75.4879 5.91667 75.3942 5.65625 75.29 5.40625C74.6442 3.86458 73.5608 3.09375 72.04 3.09375H71.1025V20.1562H73.2275C73.6025 20.1979 73.8733 20.4792 74.04 21ZM83.6125 8C83.3833 8 83.1438 8.03125 82.8938 8.09375C81.4146 8.55208 80.6333 10.2604 80.55 13.2188L82.9563 13.3125C83.8313 13.3333 84.4979 13.2812 84.9563 13.1562C85.6646 12.9062 86.0188 12.2917 86.0188 11.3125C86.0188 10.9583 85.9875 10.6146 85.925 10.2812C85.675 8.76042 84.9042 8 83.6125 8ZM89.3313 17.8438C89.2063 18.1562 89.05 18.4688 88.8625 18.7812C87.8 20.4688 86.0813 21.3125 83.7063 21.3125C82.3104 21.3125 81.05 21 79.925 20.375C77.8208 19.1458 76.7688 17.1042 76.7688 14.25C76.7688 12.5 77.2167 11.0104 78.1125 9.78125C79.3833 8.05208 81.2167 7.1875 83.6125 7.1875C84.925 7.1875 86.1021 7.4375 87.1438 7.9375C88.8104 8.77083 89.6438 10.0104 89.6438 11.6562C89.6438 12.1146 89.5396 12.5104 89.3313 12.8438C88.7063 13.8021 86.8313 14.25 83.7063 14.1875L80.55 14.125C80.55 14.1458 80.55 14.1667 80.55 14.1875C80.6542 18.3333 81.925 20.4062 84.3625 20.4062C84.8208 20.4062 85.2688 20.3333 85.7063 20.1875C87.0188 19.7708 87.9771 18.9062 88.5813 17.5938L89.3313 17.8438ZM89.2787 14.3438C89.2787 12.4688 89.7996 10.8958 90.8412 9.625C92.1537 8 93.9767 7.1875 96.31 7.1875C97.7892 7.1875 99.06 7.5 100.122 8.125C101.268 8.8125 101.841 9.625 101.841 10.5625C101.841 10.7083 101.82 10.8646 101.779 11.0312C101.55 11.7604 100.966 12.125 100.029 12.125C99.6121 12.1042 99.2683 12.0104 98.9975 11.8438C98.6433 11.5938 98.3933 11.0104 98.2475 10.0938C98.2058 9.71875 98.1642 9.4375 98.1225 9.25C97.8933 8.39583 97.2892 7.96875 96.31 7.96875C96.0808 7.96875 95.8412 7.98958 95.5912 8.03125C93.9037 8.42708 93.06 10.5312 93.06 14.3438C93.0808 18.3438 94.3204 20.3646 96.7787 20.4062C97.2162 20.4062 97.6329 20.3542 98.0287 20.25C99.5496 19.8958 100.633 19.0312 101.279 17.6562L102.091 17.875C101.904 18.375 101.633 18.8333 101.279 19.25C100.133 20.625 98.4767 21.3125 96.31 21.3125C94.8725 21.3125 93.6017 21.0104 92.4975 20.4062C90.3517 19.2188 89.2787 17.1979 89.2787 14.3438ZM107.226 20.1875C107.351 20.1875 107.476 20.1979 107.601 20.2188C107.872 20.2812 108.007 20.5417 108.007 21H100.757V20.1875C101.112 20.1875 101.414 20.1667 101.664 20.125C102.393 19.9792 102.757 19.4375 102.757 18.5V1.5H100.757V0.6875H106.195V10.2188C106.362 9.82292 106.58 9.4375 106.851 9.0625C107.851 7.8125 109.195 7.1875 110.882 7.1875C111.487 7.1875 112.049 7.29167 112.57 7.5C114.257 8.20833 115.101 9.80208 115.101 12.2812V20.1875H116.289C116.414 20.1875 116.539 20.1979 116.664 20.2188C116.935 20.2812 117.07 20.5417 117.07 21H110.132V20.1875C110.612 20.1875 110.966 20.1354 111.195 20.0312C111.507 19.8646 111.664 19.3542 111.664 18.5V11.9062C111.664 11.4688 111.622 11.0729 111.539 10.7188C111.205 9.42708 110.435 8.78125 109.226 8.78125C108.81 8.78125 108.393 8.89583 107.976 9.125C106.789 9.8125 106.195 11.0833 106.195 12.9375V20.1875H107.226Z" fill="#008080"/>
</svg>
